<?xml version="1.0" standalone="no"?><!DOCTYPE svg PUBLIC "-//W3C//DTD SVG 1.1//EN" "http://www.w3.org/Graphics/SVG/1.1/DTD/svg11.dtd"><svg t="1576578408001" class="icon" viewBox="0 0 1024 1024" version="1.1" xmlns="http://www.w3.org/2000/svg" p-id="32694" xmlns:xlink="http://www.w3.org/1999/xlink" width="200" height="200"><defs><style type="text/css"></style></defs><path d="M157.76 384.256" p-id="32695" fill="#8a8a8a"></path><path d="M651.712 514.24" p-id="32696" fill="#8a8a8a"></path><path d="M261.76 514.24" p-id="32697" fill="#8a8a8a"></path><path d="M736 736c-17.664 0-32 14.336-32 32l0 36.544c0 24.832-17.856 27.712-31.296 27.712L210.88 832C199.936 832 192 823.232 192 811.264L192 149.952C192 139.072 198.144 128 209.792 128L576 128l0 96C576 241.664 588.032 256 605.76 256L704 256l0 64c0 17.664 14.336 32 32 32S768 337.664 768 320L768 211.136 611.968 64 209.792 64C163.968 64 128 101.76 128 149.952l0 661.312C128 858.752 164.416 896 210.816 896l461.824 0.256c65.792 0 95.296-46.08 95.296-91.712L767.936 768C768 750.336 753.664 736 736 736zM640 178.368 654.4 192 640 192 640 178.368z" p-id="32698" fill="#8a8a8a"></path><path d="M285.184 320l192 0c17.664 0 32-14.336 32-32S494.848 256 477.184 256l-192 0c-17.664 0-32 14.336-32 32S267.52 320 285.184 320z" p-id="32699" fill="#8a8a8a"></path><path d="M285.184 512l256 0c17.664 0 32-14.336 32-32S558.848 448 541.184 448l-256 0c-17.664 0-32 14.336-32 32S267.52 512 285.184 512z" p-id="32700" fill="#8a8a8a"></path><path d="M996.352 353.472l-55.104-55.168c-21.824-21.824-60.096-21.888-82.048 0L626.56 530.944 594.368 640 285.184 640c-17.664 0-32 14.336-32 32S267.52 704 285.184 704l342.4 0c0.768 0 1.408-0.384 2.176-0.448 2.368 0.384 4.544 1.728 6.976 1.728l127.104-37.312 232.576-232.576C1018.944 412.864 1018.944 376.064 996.352 353.472zM729.856 611.52l-66.432 20.544 19.904-67.392 139.776-139.712 46.656 46.656L729.856 611.52zM914.944 426.432l-46.656-46.656 31.936-32 46.656 46.656L914.944 426.432z" p-id="32701" fill="#8a8a8a"></path></svg>