<?xml version="1.0" standalone="no"?><!DOCTYPE svg PUBLIC "-//W3C//DTD SVG 1.1//EN" "http://www.w3.org/Graphics/SVG/1.1/DTD/svg11.dtd"><svg t="1576578010306" class="icon" viewBox="0 0 1024 1024" version="1.1" xmlns="http://www.w3.org/2000/svg" p-id="21152" xmlns:xlink="http://www.w3.org/1999/xlink" width="200" height="200"><defs><style type="text/css"></style></defs><path d="M576 768v64h96a32 32 0 0 1 32 32v64a32 32 0 0 1-32 32h-320a32 32 0 0 1-32-32v-64a32 32 0 0 1 32-32H448v-64H128a64 64 0 0 1-64-64V128a64 64 0 0 1 64-64h768a64 64 0 0 1 64 64v576a64 64 0 0 1-64 64H576zM416 384a32 32 0 0 0-32 32V576h64V416a32 32 0 0 0-32-32z m-192 64a32 32 0 0 0-32 32V576h64V480a32 32 0 0 0-32-32z m384-128a32 32 0 0 0-32 32V576h64V352a32 32 0 0 0-32-32z m192-128a32 32 0 0 0-32 32V576h64V224a32 32 0 0 0-32-32z m-640 448a32 32 0 1 0 0 64h704a32 32 0 1 0 0-64h-704z" p-id="21153" fill="#8a8a8a"></path></svg>