<?xml version="1.0" encoding="UTF-8"?>
<svg width="200px" height="200px" viewBox="0 0 200 200" version="1.1" xmlns="http://www.w3.org/2000/svg" xmlns:xlink="http://www.w3.org/1999/xlink">
    <g id="logo" stroke="none" stroke-width="1" fill="none" fill-rule="evenodd">
        <g transform="translate(16.000000, 3.000000)" fill-rule="nonzero">
            <path d="M35.5691154,84.6147763 L85,84.6147763 L85,40.5863468 L35.5691154,68.7874699 L35.5691154,84.6147763 Z M35.5691154,125.19542 L85,153.416505 L85,109.370965 L35.5691154,109.370965 L35.5691154,125.19542 Z M0,48.5 L0,145.5 L85,194 L85,181.988358 L10.5204019,139.499882 L10.5204019,54.5029694 L85,12.0116423 L85,0 L0,48.5 Z" id="PATH_3_0" fill="#D40050"></path>
            <polygon id="PATH_3_1" fill="#A10D59" points="84 0 84 12.0116423 84.0028856 12.0116423 152.223342 50.9297054 139.700003 72.3635856 84.0028856 40.5863468 84 40.5863468 84 84.6147763 132.558237 84.6147763 125.33279 96.9942965 132.558237 109.370965 84 109.370965 84 153.413653 84.0028856 153.416505 139.700003 121.625007 152.223342 143.073146 84.0028856 181.99121 84 181.988358 84 194 169 145.5 169 48.5"></polygon>
        </g>
    </g>
</svg>