<?xml version="1.0" standalone="no"?><!DOCTYPE svg PUBLIC "-//W3C//DTD SVG 1.1//EN" "http://www.w3.org/Graphics/SVG/1.1/DTD/svg11.dtd"><svg t="1576577984631" class="icon" viewBox="0 0 1024 1024" version="1.1" xmlns="http://www.w3.org/2000/svg" p-id="20348" xmlns:xlink="http://www.w3.org/1999/xlink" width="200" height="200"><defs><style type="text/css"></style></defs><path d="M78.803478 91.781565L247.830261 44.521739h553.160348l138.306782 47.259826H78.803478z m866.393044 675.350261v-39.69113H78.803478V979.478261h866.393044v-212.346435zM409.6 884.958609H204.822261v-78.758957H409.6v78.758957z m261.565217-15.738435c-6.967652 7.346087-16.695652 11.01913-26.290087 11.01913-4.118261 0-8.192-0.667826-12.04313-2.025739-12.755478-6.010435-22.706087-19.500522-22.706087-34.459826 1.424696-20.992 17.051826-37.487304 35.461565-37.487304 14.224696 0 26.980174 8.97113 32.656696 22.483478 5.676522 13.490087 2.849391 29.96313-7.078957 40.470261z m90.802087 11.998609a23.195826 23.195826 0 0 1-2.181565 0.089043c-17.563826 0-33.346783-17.341217-34.704696-36.062609 0-20.969739 15.60487-38.956522 34.014609-38.956521 19.901217 0 35.483826 16.473043 36.886261 35.951304 0.022261 20.969739-15.560348 37.487304-34.014609 38.978783z m183.229218-415.120696v-37.932522H78.803478V680.18087h866.393044v-214.082783zM409.6 585.683478H204.822261v-78.758956H409.6v78.758956z m261.565217-17.519304c-6.967652 7.346087-16.695652 11.01913-26.290087 11.01913-4.118261 0-8.192-0.667826-12.04313-2.048-12.755478-5.988174-22.706087-19.456-22.706087-34.459826 1.424696-20.969739 17.051826-37.465043 35.461565-37.465043 14.224696 0 26.980174 8.993391 32.656696 22.483478 5.676522 13.512348 2.849391 30.007652-7.078957 40.470261z m90.802087 11.998609a23.062261 23.062261 0 0 1-2.181565 0.111304c-17.563826 0-33.346783-17.341217-34.704696-36.062609 0-20.969739 15.60487-38.956522 34.014609-38.956521 19.901217 0 35.483826 16.473043 36.886261 35.951304 0.022261 20.969739-15.560348 37.465043-34.014609 38.956522zM945.196522 149.281391V113.107478H78.803478V380.883478h866.393044V149.281391zM409.6 286.386087H204.822261V207.60487H409.6v78.781217zM671.165217 267.130435c-6.967652 7.346087-16.695652 11.01913-26.290087 11.01913-4.118261 0-8.192-0.667826-12.04313-2.025739-12.755478-5.988174-22.706087-19.478261-22.706087-34.459826 1.424696-20.969739 17.051826-37.465043 35.461565-37.465043 14.224696 0 26.980174 8.993391 32.656696 22.483478 5.676522 13.490087 2.849391 29.96313-7.078957 40.448z m90.802087 11.998608a34.326261 34.326261 0 0 1-2.181565 0.089044c-17.563826 0-33.346783-17.341217-34.704696-36.040348 0-20.969739 15.60487-38.956522 34.014609-38.956522 19.901217 0 35.483826 16.473043 36.886261 35.973566 0.022261 20.947478-15.560348 37.420522-34.014609 38.93426z" p-id="20349" fill="#8a8a8a"></path></svg>