<?xml version="1.0" standalone="no"?><!DOCTYPE svg PUBLIC "-//W3C//DTD SVG 1.1//EN" "http://www.w3.org/Graphics/SVG/1.1/DTD/svg11.dtd"><svg t="1576577945372" class="icon" viewBox="0 0 1024 1024" version="1.1" xmlns="http://www.w3.org/2000/svg" p-id="18865" xmlns:xlink="http://www.w3.org/1999/xlink" width="200" height="200"><defs><style type="text/css"></style></defs><path d="M58.63513 924.716522a31.966609 31.966609 0 0 0 0 33.925565 31.47687 31.47687 0 0 0 43.49774 9.97287l656.384-414.942609a140.377043 140.377043 0 0 0 24.264347-217.444174L688.306087 241.307826a138.907826 138.907826 0 0 0-216.375652 24.397913L58.63513 924.716522zM434.176 242.064696a183.429565 183.429565 0 0 1 285.606957-32.144696l94.564173 94.920348a184.898783 184.898783 0 0 1-32.055652 286.497391l-656.384 414.942609c-35.617391 22.483478-82.632348 11.753739-105.026782-23.952696a76.488348 76.488348 0 0 1 0-81.296695L434.176 242.064696z" p-id="18866" fill="#8a8a8a"></path><path d="M779.798261 243.622957V41.583304a22.26087 22.26087 0 0 0-44.521739 0v224.300522a22.26087 22.26087 0 0 0 22.260869 22.26087h224.300522a22.26087 22.26087 0 1 0 0-44.521739h-202.039652zM245.181217 778.24l74.796522 74.752a22.26087 22.26087 0 0 0 31.432348-31.47687l-74.752-74.796521a22.26087 22.26087 0 0 0-31.47687 31.476869zM298.028522 513.869913l112.194782 112.150261a22.26087 22.26087 0 1 0 31.47687-31.47687l-112.194783-112.194782a22.26087 22.26087 0 0 0-31.476869 31.521391zM403.812174 355.283478l112.150261 112.105739a22.26087 22.26087 0 0 0 31.476869-31.476869l-112.194782-112.150261a22.26087 22.26087 0 0 0-31.432348 31.47687z" p-id="18867" fill="#8a8a8a"></path><path d="M919.195826 73.282783l-178.086956 178.086956a22.26087 22.26087 0 0 0 31.521391 31.521391l178.086956-178.086956a22.26087 22.26087 0 0 0-31.521391-31.521391z" p-id="18868" fill="#8a8a8a"></path></svg>