<?xml version="1.0" standalone="no"?><!DOCTYPE svg PUBLIC "-//W3C//DTD SVG 1.1//EN" "http://www.w3.org/Graphics/SVG/1.1/DTD/svg11.dtd"><svg t="1576578205962" class="icon" viewBox="0 0 1024 1024" version="1.1" xmlns="http://www.w3.org/2000/svg" p-id="26025" xmlns:xlink="http://www.w3.org/1999/xlink" width="200" height="200"><defs><style type="text/css"></style></defs><path d="M1015.848 687.82H8.156a7.992 7.992 0 0 1-7.998-7.996 7.994 7.994 0 0 1 7.998-7.998h1007.692a7.992 7.992 0 0 1 7.996 7.998 7.992 7.992 0 0 1-7.996 7.996zM512 767.766c-17.636 0-31.99-14.34-31.99-31.99s14.354-31.99 31.99-31.99 31.992 14.34 31.992 31.99-14.356 31.99-31.992 31.99z m0-47.984c-8.81 0-15.996 7.184-15.996 15.994S503.19 751.77 512 751.77c8.824 0 15.996-7.184 15.996-15.994s-7.172-15.994-15.996-15.994z m-135.848 255.95a8.01 8.01 0 0 1-7.826-9.73l31.99-143.956c0.968-4.296 5.294-6.954 9.544-6.078a8.014 8.014 0 0 1 6.078 9.544l-31.99 143.956a8 8 0 0 1-7.796 6.264z m271.712 0a8 8 0 0 1-7.808-6.264l-31.988-143.956a8.01 8.01 0 0 1 6.074-9.544 7.99 7.99 0 0 1 9.542 6.078l31.992 143.956a8.008 8.008 0 0 1-7.812 9.73z" p-id="26026" fill="#8a8a8a"></path><path d="M671.954 975.732H352.05a7.992 7.992 0 0 1-7.998-7.998 7.992 7.992 0 0 1 7.998-7.996h319.904a7.992 7.992 0 0 1 7.996 7.996 7.992 7.992 0 0 1-7.996 7.998zM967.86 640.086H56.14a7.994 7.994 0 0 1-7.998-7.998V104.25a7.994 7.994 0 0 1 7.998-7.998h911.72c4.422 0 8 3.578 8 7.998v527.838a7.994 7.994 0 0 1-8 7.998zM64.138 624.09h895.726V112.248H64.138V624.09z" p-id="26027" fill="#8a8a8a"></path><path d="M967.86 800.038H56.14c-30.866 0-55.982-25.118-55.982-55.982V104.25c0-30.866 25.118-55.982 55.982-55.982h911.72c30.868 0 55.984 25.118 55.984 55.982v639.804c0 30.866-25.118 55.984-55.984 55.984zM56.14 64.262c-22.04 0-39.988 17.94-39.988 39.988v639.804c0 22.054 17.948 39.986 39.988 39.986h911.72c22.058 0 39.988-17.932 39.988-39.986V104.25c0-22.048-17.93-39.988-39.988-39.988H56.14z" p-id="26028" fill="#8a8a8a"></path><path d="M967.86 831.778H56.14c-31.38 0-55.982-24.586-55.982-55.982v-31.99a7.994 7.994 0 0 1 7.998-7.998 7.994 7.994 0 0 1 7.998 7.998v31.99c0 22.43 17.574 39.986 39.988 39.986h911.72c22.434 0 39.988-17.556 39.988-39.986v-31.74a7.994 7.994 0 0 1 8-7.998 7.992 7.992 0 0 1 7.996 7.998v31.74c-0.002 31.396-24.588 55.982-55.986 55.982zM88.13 640.086a7.994 7.994 0 0 1-7.998-7.998V104.25a7.994 7.994 0 0 1 7.998-7.998 7.994 7.994 0 0 1 7.998 7.998v527.838a7.994 7.994 0 0 1-7.998 7.998z" p-id="26029" fill="#8a8a8a"></path><path d="M72.136 160.232H56.14c-4.42 0-7.998-3.576-7.998-7.998s3.578-7.998 7.998-7.998h15.996c4.42 0 7.998 3.576 7.998 7.998s-3.578 7.998-7.998 7.998z m0 47.986H56.14c-4.42 0-7.998-3.578-7.998-7.998s3.578-7.998 7.998-7.998h15.996c4.42 0 7.998 3.578 7.998 7.998s-3.578 7.998-7.998 7.998z m0 47.986H56.14c-4.42 0-7.998-3.576-7.998-7.998s3.578-7.998 7.998-7.998h15.996c4.42 0 7.998 3.576 7.998 7.998s-3.578 7.998-7.998 7.998z m0 47.986H56.14c-4.42 0-7.998-3.578-7.998-7.998s3.578-7.998 7.998-7.998h15.996c4.42 0 7.998 3.578 7.998 7.998s-3.578 7.998-7.998 7.998zM72.136 352.174H56.14c-4.42 0-7.998-3.576-7.998-7.998s3.578-7.998 7.998-7.998h15.996c4.42 0 7.998 3.576 7.998 7.998s-3.578 7.998-7.998 7.998zM72.136 400.16H56.14a7.994 7.994 0 0 1-7.998-7.998 7.994 7.994 0 0 1 7.998-7.998h15.996a7.994 7.994 0 0 1 7.998 7.998 7.996 7.996 0 0 1-7.998 7.998zM72.136 448.144H56.14a7.994 7.994 0 0 1-7.998-7.998 7.994 7.994 0 0 1 7.998-7.998h15.996a7.994 7.994 0 0 1 7.998 7.998 7.994 7.994 0 0 1-7.998 7.998zM72.136 496.13H56.14a7.994 7.994 0 0 1-7.998-7.998 7.994 7.994 0 0 1 7.998-7.998h15.996a7.994 7.994 0 0 1 7.998 7.998 7.996 7.996 0 0 1-7.998 7.998zM72.136 544.116H56.14a7.994 7.994 0 0 1-7.998-7.998 7.992 7.992 0 0 1 7.998-7.996h15.996a7.992 7.992 0 0 1 7.998 7.996 7.994 7.994 0 0 1-7.998 7.998zM72.136 592.102H56.14c-4.42 0-7.998-3.578-7.998-7.998s3.578-7.998 7.998-7.998h15.996c4.42 0 7.998 3.578 7.998 7.998s-3.578 7.998-7.998 7.998zM200.096 160.232h-63.98c-4.42 0-7.998-3.576-7.998-7.998s3.576-7.998 7.998-7.998h63.98c4.42 0 7.998 3.576 7.998 7.998s-3.578 7.998-7.998 7.998z m287.91 47.986h-223.93c-4.42 0-7.998-3.578-7.998-7.998s3.576-7.998 7.998-7.998h223.93c4.422 0 7.998 3.578 7.998 7.998s-3.576 7.998-7.998 7.998z m-255.92 0H152.11c-4.42 0-7.998-3.578-7.998-7.998s3.578-7.998 7.998-7.998h79.976c4.42 0 7.998 3.578 7.998 7.998s-3.578 7.998-7.998 7.998z m447.864 47.986H472.012c-4.42 0-7.998-3.576-7.998-7.998s3.578-7.998 7.998-7.998h207.936c4.422 0 7.996 3.576 7.996 7.998s-3.572 7.998-7.994 7.998z m95.968 0h-63.98c-4.418 0-7.996-3.576-7.996-7.998s3.578-7.998 7.996-7.998h63.98c4.422 0 8 3.576 8 7.998s-3.578 7.998-8 7.998z m-335.896 0H168.106c-4.42 0-7.998-3.576-7.998-7.998s3.576-7.998 7.998-7.998h271.916c4.42 0 7.998 3.576 7.998 7.998s-3.578 7.998-7.998 7.998z m-223.932 95.97h-47.984c-4.42 0-7.998-3.576-7.998-7.998s3.576-7.998 7.998-7.998h47.986c4.42 0 7.998 3.576 7.998 7.998s-3.58 7.998-8 7.998z m269.418 0H248.082c-4.42 0-7.998-3.576-7.998-7.998s3.578-7.998 7.998-7.998H485.51c4.42 0 7.998 3.576 7.998 7.998s-3.58 7.998-8 7.998z m66.48-47.984H184.1c-4.42 0-7.998-3.578-7.998-7.998s3.578-7.998 7.998-7.998h367.888c4.422 0 7.996 3.578 7.996 7.998s-3.574 7.998-7.996 7.998z m-15.996 95.97H392.036a7.994 7.994 0 0 1-7.998-7.998 7.994 7.994 0 0 1 7.998-7.998h143.956c4.422 0 8 3.578 8 7.998a7.994 7.994 0 0 1-8 7.998z m-111.964 47.984H152.11a7.994 7.994 0 0 1-7.998-7.998 7.994 7.994 0 0 1 7.998-7.998h271.916a7.994 7.994 0 0 1 7.998 7.998 7.992 7.992 0 0 1-7.996 7.998z m-143.956 95.972h-127.96a7.994 7.994 0 0 1-7.998-7.998 7.992 7.992 0 0 1 7.998-7.996h127.96a7.992 7.992 0 0 1 7.998 7.996 7.994 7.994 0 0 1-7.998 7.998z m319.9-47.986h-223.93a7.994 7.994 0 0 1-7.998-7.998 7.994 7.994 0 0 1 7.998-7.998h223.93c4.422 0 8 3.578 8 7.998a7.994 7.994 0 0 1-8 7.998z m47.986 0h-15.992c-4.422 0-8-3.578-8-7.998a7.994 7.994 0 0 1 8-7.998h15.992c4.422 0 8 3.578 8 7.998s-3.58 7.998-8 7.998z m-303.906 0H168.106a7.994 7.994 0 0 1-7.998-7.998 7.994 7.994 0 0 1 7.998-7.998h175.946a7.994 7.994 0 0 1 7.998 7.998 7.994 7.994 0 0 1-7.998 7.998z m-143.956 95.972h-63.98c-4.42 0-7.998-3.578-7.998-7.998s3.576-7.998 7.998-7.998h63.98c4.42 0 7.998 3.578 7.998 7.998s-3.578 7.998-7.998 7.998z m351.892-143.958h-95.972a7.994 7.994 0 0 1-7.998-7.998 7.994 7.994 0 0 1 7.998-7.998h95.972a7.992 7.992 0 0 1 7.996 7.998 7.99 7.99 0 0 1-7.996 7.998zM679.95 400.16H567.986c-4.422 0-8-3.578-8-7.998a7.994 7.994 0 0 1 8-7.998H679.95a7.992 7.992 0 0 1 7.996 7.998 7.992 7.992 0 0 1-7.996 7.998z m-319.904 0h-191.94a7.994 7.994 0 0 1-7.998-7.998 7.994 7.994 0 0 1 7.998-7.998h191.942a7.994 7.994 0 0 1 7.998 7.998 7.996 7.996 0 0 1-8 7.998z" p-id="26030" fill="#8a8a8a"></path></svg>