<?xml version="1.0" standalone="no"?><!DOCTYPE svg PUBLIC "-//W3C//DTD SVG 1.1//EN" "http://www.w3.org/Graphics/SVG/1.1/DTD/svg11.dtd"><svg t="1576578032128" class="icon" viewBox="0 0 1024 1024" version="1.1" xmlns="http://www.w3.org/2000/svg" p-id="21951" xmlns:xlink="http://www.w3.org/1999/xlink" width="200" height="200"><defs><style type="text/css"></style></defs><path d="M887.296 609.28a1493.9648 1493.9648 0 0 1-122.9824 151.9104 15.5136 15.5136 0 0 1-11.9808 5.12 15.5136 15.5136 0 0 1-11.9296-5.12 1493.9648 1493.9648 0 0 1-123.0336-151.9104c-61.44-88.7296-136.704-218.4704-136.704-334.4896C482.4576 122.88 603.7504 0 752.384 0S1024 122.88 1024 274.7904c0 116.0192-73.472 245.76-136.704 334.4896z m-134.9632-505.1904c-90.5216 0-165.6832 75.1104-165.6832 167.2704 0 92.16 73.472 167.2704 165.6832 167.2704 90.5728 0 165.7344-75.1104 165.7344-167.2704 0-92.16-73.472-167.2704-165.7344-167.2704zM489.2672 757.76l-408.32-46.08 58.0608-204.8a27.1872 27.1872 0 0 1 25.6-20.48h304.128c13.6704 39.2704 32.4608 76.8 52.992 114.3296L489.2672 757.76z m-54.6816 264.5504H27.9552a27.5456 27.5456 0 0 1-22.1696-10.24c-5.12-6.8608-6.8608-15.36-5.12-23.9104l54.6304-194.56 415.1808 46.08-35.8912 182.6304z m150.3232-319.1808c17.1008 23.9104 34.2016 46.08 51.2512 69.9904l-66.56-6.8096 15.36-63.1808z m350.208-20.48l35.9424 128-123.0336-13.6192c25.6-30.72 49.5616-61.44 71.7824-93.9008 6.8096-6.8096 11.9296-13.6192 15.36-20.48z m61.5424 215.04l25.6 88.7808a21.6064 21.6064 0 0 1 1.7408 10.24 27.392 27.392 0 0 1-8.5504 18.7392c-5.12 5.12-11.9296 8.5504-18.7904 8.5504h-478.3616l35.84-174.08 442.5216 47.7696z" p-id="21952" fill="#8a8a8a"></path></svg>