<?xml version="1.0" standalone="no"?><!DOCTYPE svg PUBLIC "-//W3C//DTD SVG 1.1//EN" "http://www.w3.org/Graphics/SVG/1.1/DTD/svg11.dtd"><svg t="1576578322001" class="icon" viewBox="0 0 1024 1024" version="1.1" xmlns="http://www.w3.org/2000/svg" p-id="29125" xmlns:xlink="http://www.w3.org/1999/xlink" width="200" height="200"><defs><style type="text/css"></style></defs><path d="M517.6 680.8c-31.2 0-56.8-25.6-56.8-56.8s25.6-56.8 56.8-56.8c31.2 0 56.8 25.6 56.8 56.8s-25.6 56.8-56.8 56.8z m-237.6 0c-31.2 0-56.8-25.6-56.8-56.8s24.8-56 56.8-56 56.8 25.6 56.8 56.8-26.4 56-56.8 56z m475.2 0c-31.2 0-56.8-25.6-56.8-56.8s25.6-56.8 56.8-56.8c31.2 0 56.8 25.6 56.8 56.8s-24.8 56.8-56.8 56.8z" p-id="29126" fill="#8a8a8a"></path><path d="M84 980C37.6 980 0 942.4 0 896V134.4C0 88.8 33.6 51.2 74.4 51.2h286.4L496 268h444c46.4 0 84 37.6 84 84v544.8c0 46.4-37.6 84-84 84 0-0.8-856-0.8-856-0.8z m0-656.8c-16 0-28.8 12.8-28.8 28.8v544.8c0 16 12.8 28.8 28.8 28.8h856c16 0 28.8-12.8 28.8-28.8V352c0-16-12.8-28.8-28.8-28.8h-856zM74.4 105.6c-10.4 0-20 13.6-20 28.8v139.2c9.6-3.2 19.2-5.6 28.8-5.6h348L330.4 105.6h-256z" p-id="29127" fill="#8a8a8a"></path></svg>