<?xml version="1.0" standalone="no"?><!DOCTYPE svg PUBLIC "-//W3C//DTD SVG 1.1//EN" "http://www.w3.org/Graphics/SVG/1.1/DTD/svg11.dtd"><svg t="1576578126640" class="icon" viewBox="0 0 1024 1024" version="1.1" xmlns="http://www.w3.org/2000/svg" p-id="23527" xmlns:xlink="http://www.w3.org/1999/xlink" width="200" height="200"><defs><style type="text/css"></style></defs><path d="M948.532 70.395c-6.698-5.582-14.514-7.815-22.33-4.465L79.923 391.939c-8.932 3.349-14.515 13.397-15.632 24.56-1.116 11.167 4.466 22.33 13.397 26.797l296.981 178.636-4.467 176.401c0 11.166 4.467 21.213 12.282 25.68 7.817 5.581 16.748 4.466 24.562-1.116L541.02 735.81c10.049-8.93 13.398-26.794 5.581-39.075-7.814-12.283-22.327-15.632-32.376-6.701l-97.133 53.59 3.349-138.443c0-11.164-4.466-21.213-13.398-26.794L146.909 422.083l296.22-112.225 464.094-175.823-51.7 487.859-27.568 260.172-200.966-148.488c-11.165-7.815-25.678-3.35-32.376 10.046-6.7 13.398-3.35 31.261 7.813 39.077l232.227 171.936c3.349 2.234 7.815 4.466 12.281 4.466 3.35 0 7.815-1.116 10.047-3.35 6.7-4.465 12.284-13.396 12.284-22.328L955.23 97.19c3.35-11.164 0-21.212-6.699-26.794z" fill="#8a8a8a" p-id="23528"></path><path d="M833.703 270.603c10.67-13.338 14.837-27.201 4.165-40.54-10.67-13.336-28.01-13.336-38.678 0l-190.375 205.16-135.897 144.281c-8.93 11.166-8.93 29.03 0 40.193 4.467 5.582 10.049 7.816 16.747 7.816 5.582 0 12.281-2.234 16.747-7.816l143.79-153.158 183.5-195.936z" fill="#8a8a8a" p-id="23529"></path></svg>