<?xml version="1.0" standalone="no"?><!DOCTYPE svg PUBLIC "-//W3C//DTD SVG 1.1//EN" "http://www.w3.org/Graphics/SVG/1.1/DTD/svg11.dtd"><svg t="1576578153110" class="icon" viewBox="0 0 1024 1024" version="1.1" xmlns="http://www.w3.org/2000/svg" p-id="24329" xmlns:xlink="http://www.w3.org/1999/xlink" width="200" height="200"><defs><style type="text/css"></style></defs><path d="M892.534829 308.264852 785.130657 308.264852l-0.094144-108.534925c-0.251733-1.979074-27.675316-199.729927-263.782755-199.729927-236.986459 0-258.379699 198.724017-258.693854 203.719798l0 104.545054L149.972687 308.264852c-51.707662 0-93.802386 42.094724-93.802386 93.833085l0 528.099676c0 51.707662 42.094724 93.802386 93.802386 93.802386l742.562143 0c51.707662 0 93.802386-42.094724 93.802386-93.802386L986.337215 402.097938C986.337215 350.359576 944.242492 308.264852 892.534829 308.264852zM521.253758 64.335261c178.210821 0 199.164039 137.686872 199.698205 139.383514l0 104.545054L326.797951 308.263829l-0.059352-101.341083C328.277652 192.316074 346.93764 64.335261 521.253758 64.335261zM922.000931 930.197614c0 16.240893-13.225209 29.466102-29.466102 29.466102l-742.562143 0c-16.240893 0-29.466102-13.225209-29.466102-29.466102L120.506585 402.097938c0-16.272615 13.225209-29.497824 29.466102-29.497824l112.587218 0 0 35.741016c-29.7997 12.220323-50.921763 41.383526-50.921763 75.527161 0 45.078685 36.691667 81.738629 81.770352 81.738629 45.078685 0 81.738629-36.659945 81.738629-81.738629 0-33.090653-19.955494-61.363579-48.294936-74.219375l-0.019443-37.048801 394.119219 0 0 36.189224c-29.100782 12.530384-49.570999 41.434691-49.570999 75.078952 0 45.078685 36.659945 81.738629 81.738629 81.738629s81.770352-36.659945 81.770352-81.738629c0-33.675984-20.517289-62.616106-49.669236-75.126025l-0.031722-36.142152 107.34482 0c16.240893 0 29.466102 13.225209 29.466102 29.497824L921.999908 930.197614z" p-id="24330" fill="#8a8a8a"></path><path d="M839.696414 886.626259 692.804902 886.626259 692.804902 918.79389 871.613334 918.79389 873.748974 669.61883 841.581344 669.36812Z" p-id="24331" fill="#8a8a8a"></path><path d="M619.422591 886.626259l26.136264 0 0 32.16763-26.136264 0 0-32.16763Z" p-id="24332" fill="#8a8a8a"></path></svg>